PathFileType	4	(X/Y/Z)	C:\Users\Basilio\Documents\Thesis Gigler\squatting_fais\c3dfiles\054\SJ_pre2\markers_experimental.trc
DataRate	CameraRate	NumFrames	NumMarkers	Units	OrigDataRate	OrigDataStartFrame	OrigNumFrames
200.000000	200.000000	4	61	mm	200.000000	1571	2095
Frame#	Time	FHD			LBHD			RBHD			C7			T10			CLAV			LSHO			LUUPA			LMUPA			LDUPA			LLEP			LMEP			LRAD			LUL			LRFIN			RSHO			RUPA1			RMUPA			RDUPA			RLEP			RMEP			RRAD			RUL			RUFIN			LASI			RASI			USACR			LSACR			RSACR			LTHI1			LTHI2			LTHI3			LTHI4			LLFC			LMFC			LTIB1			LTIB2			LTIB3			LTIB4			LLMAL			LMMAL			LHEE			LMT1			LMT2			LMT5			RTHI			RTHI2			RTHI3			RTHI4			RLFC			RMFC			RTIB1			RTIB2			RTIB3			RTIB4			RLMAL			RMMAL			RHEE			RMT1			RMT2			RMT5			
		X1	Y1	Z1	X2	Y2	Z2	X3	Y3	Z3	X4	Y4	Z4	X5	Y5	Z5	X6	Y6	Z6	X7	Y7	Z7	X8	Y8	Z8	X9	Y9	Z9	X10	Y10	Z10	X11	Y11	Z11	X12	Y12	Z12	X13	Y13	Z13	X14	Y14	Z14	X15	Y15	Z15	X16	Y16	Z16	X17	Y17	Z17	X18	Y18	Z18	X19	Y19	Z19	X20	Y20	Z20	X21	Y21	Z21	X22	Y22	Z22	X23	Y23	Z23	X24	Y24	Z24	X25	Y25	Z25	X26	Y26	Z26	X27	Y27	Z27	X28	Y28	Z28	X29	Y29	Z29	X30	Y30	Z30	X31	Y31	Z31	X32	Y32	Z32	X33	Y33	Z33	X34	Y34	Z34	X35	Y35	Z35	X36	Y36	Z36	X37	Y37	Z37	X38	Y38	Z38	X39	Y39	Z39	X40	Y40	Z40	X41	Y41	Z41	X42	Y42	Z42	X43	Y43	Z43	X44	Y44	Z44	X45	Y45	Z45	X46	Y46	Z46	X47	Y47	Z47	X48	Y48	Z48	X49	Y49	Z49	X50	Y50	Z50	X51	Y51	Z51	X52	Y52	Z52	X53	Y53	Z53	X54	Y54	Z54	X55	Y55	Z55	X56	Y56	Z56	X57	Y57	Z57	X58	Y58	Z58	X59	Y59	Z59	X60	Y60	Z60	X61	Y61	Z61	

1572	7.855	88.50985717773439	1252.117309570313	-866.8931884765627	-78.66717529296876	1203.131103515625	-932.9066162109377	-90.97189331054689	1202.437377929688	-793.466735839844	-143.7046966552735	1114.2255859375	-849.8861083984377	-399.3020629882814	896.885681152344	-883.395446777344	-64.62163543701173	970.9725341796877	-859.004577636719	-59.31675720214845	1053.914428710938	-1010.073608398438	-192.8035888671876	1026.912841796875	-1196.149536132813	-191.0830688476563	976.660583496094	-1205.225708007813	-232.4972686767579	994.5955200195315	-1245.348510742188	-274.2854919433594	946.1965332031252	-1269.65283203125	-343.0129394531251	988.4689941406252	-1232.34912109375	-425.9968566894532	788.2539672851565	-1117.187377929688	-410.999725341797	729.3869628906251	-1164.534301757813	-377.0341491699219	763.2125244140626	-1075.267944335938	-59.38388061523439	1035.656372070313	-696.3554077148439	-223.9179992675782	995.1736450195315	-528.0373535156251	-235.0886993408204	947.4530029296877	-524.9640502929689	-280.5064086914063	971.5232543945315	-491.9217224121095	-324.3333740234376	942.489196777344	-480.9988708496095	-375.2303771972657	991.4191894531252	-533.2758789062501	-464.9712524414064	792.8948974609377	-669.3585815429689	-452.5508728027345	737.1210937500001	-615.4711914062501	-405.712860107422	769.507751464844	-693.2914428710939	-348.4685668945313	672.2090454101564	-1004.625671386719	-365.3189086914063	678.9476318359376	-746.3652343750001	-468.3149719238282	831.2129516601565	-885.7518310546877	-492.8610229492189	809.1428833007815	-913.9240722656252	-496.5361328125001	809.9486083984377	-856.5628662109377	-399.2788696289064	596.4135742187501	-1156.992919921875	-320.3491210937501	581.7242431640626	-1186.0478515625	-291.6751098632813	616.1953125000001	-1171.830932617188	-295.3486938476563	528.9063110351564	-1202.692626953125	-184.9376983642578	452.6218261718751	-1236.105346679688	-123.4463577270508	425.9840393066407	-1118.89404296875	-189.258056640625	290.0157775878907	-1220.925659179688	-268.7390136718751	279.8238525390626	-1260.741088867188	-230.3165435791016	259.5237121582032	-1249.031005859375	-262.5749511718751	185.3681945800782	-1217.40771484375	-385.4962158203126	90.45818328857423	-1246.449462890625	-326.8035888671876	92.01949310302736	-1166.290893554688	-441.6023254394532	51.79452514648439	-1176.57177734375	-224.9089965820313	52.93212890625001	-1231.749633789063	-235.3802795410157	57.80842971801759	-1280.161376953125	-299.9482727050782	38.36103057861329	-1316.045776367188	-385.2777404785157	558.1765136718751	-587.8866577148439	-322.4769287109376	561.3761596679689	-562.3503417968751	-300.5303039550782	586.2359619140626	-566.2598266601564	-277.3120117187501	493.8242187500001	-539.8942260742189	-235.2033996582032	447.2998046875001	-518.4552612304689	-148.969482421875	438.5597534179689	-624.6071777343751	-218.0234527587891	340.0122070312501	-503.1326599121095	-323.4234619140626	309.7064819335938	-509.3211364746095	-285.2499084472657	283.5465087890626	-502.1759338378907	-287.0106201171876	231.1054840087891	-525.0570068359376	-416.5397338867189	92.9512176513672	-539.3708496093751	-353.1973571777344	96.37335205078128	-609.0494995117189	-467.4051513671876	50.43700027465822	-614.4765014648439	-251.5088806152344	50.821346282959	-542.1336669921876	-268.5151367187501	53.97153854370119	-497.0775146484376	-331.5567626953126	35.29517364501954	-467.749237060547	
1573	7.86	90.61096954345705	1244.965454101563	-866.7217407226565	-76.52357482910158	1196.577270507813	-932.9882812500002	-88.68920898437501	1195.808349609375	-793.5081176757815	-141.9374237060547	1108.16162109375	-849.7153320312502	-398.8937377929689	893.0736083984377	-883.3795166015627	-63.46367263793947	964.5388793945315	-859.0791015625002	-57.60551834106447	1047.339721679688	-1010.294006347656	-191.4103698730469	1022.457702636719	-1196.225708007813	-190.4398803710938	972.213562011719	-1205.562255859375	-231.7320098876954	991.0008544921877	-1245.572021484375	-273.7242431640626	942.8798828125002	-1270.019287109375	-342.3757629394532	985.7094726562502	-1232.259643554688	-426.150360107422	785.8476562500002	-1117.286987304688	-411.7763977050782	726.9476928710939	-1164.656494140625	-377.5405578613282	760.6101684570314	-1075.437377929688	-57.86296844482423	1028.74853515625	-696.3655395507814	-222.7639465332032	989.6963500976565	-528.0134887695314	-234.3951568603516	941.8405761718752	-524.9998779296876	-279.5535888671876	966.098571777344	-492.1210937500001	-323.4132385253907	937.3549804687502	-481.1954956054689	-374.1399230957032	986.6370239257815	-533.2018432617189	-465.3932189941407	789.3157958984377	-669.5269165039064	-453.3990783691407	733.0653076171876	-615.7979736328126	-406.3702392578126	765.4459228515626	-693.6296997070314	-349.3004760742188	668.7275390625001	-1004.977294921875	-366.6206970214844	674.7825927734376	-746.9473266601564	-468.1693115234376	828.0818481445315	-885.9499511718752	-492.7240295410157	806.2813110351565	-913.9250488281252	-496.5679626464845	807.1347656250002	-856.611511230469	-400.4141845703126	595.0610961914064	-1157.55859375	-321.4045715332032	581.0773315429689	-1186.348022460938	-292.8822326660157	615.4948730468751	-1171.730346679688	-296.0494079589844	528.4583129882814	-1203.074584960938	-185.1262664794922	452.6256408691407	-1236.41455078125	-123.5157318115235	425.7903442382814	-1119.213623046875	-189.3018341064453	289.9873962402344	-1221.096435546875	-268.6625671386719	279.7486572265626	-1261.041259765625	-230.5681610107422	259.3943786621094	-1249.114624023438	-262.5863952636719	185.3584136962891	-1217.509765625	-385.8356323242189	90.52410888671876	-1246.484375	-326.7886047363282	92.0697479248047	-1166.364624023438	-441.6300354003907	51.758113861084	-1176.63623046875	-224.9533081054688	52.92645263671876	-1231.76025390625	-235.3998260498047	57.79144668579103	-1280.161865234375	-299.9541931152344	38.30870056152344	-1316.07177734375	-386.6973266601564	557.2388916015626	-588.0687866210939	-323.9620971679688	560.8086547851564	-562.5690917968751	-301.9667663574219	585.4791259765626	-566.6898193359376	-278.6417236328126	493.7011718750001	-539.6879882812501	-235.8677673339844	447.082977294922	-518.1778564453126	-149.5848083496094	438.4237670898439	-624.1645507812501	-218.6294860839844	340.0943298339844	-502.784393310547	-323.9609680175782	309.5997924804688	-509.144256591797	-285.6355895996094	283.4384460449219	-501.9866027832032	-287.4147033691407	230.9743652343751	-524.9378051757814	-416.7025756835939	92.69896697998048	-539.3504028320314	-353.2916870117188	96.27642822265628	-609.0299682617189	-467.504119873047	50.29395675659181	-614.4459838867189	-251.7595825195313	50.72148513793947	-542.0516357421876	-268.6689147949219	53.96605682373048	-497.0604248046876	-331.6151123046876	35.26795959472657	-467.7293395996095	
1574	7.865	92.93011474609376	1238.228881835938	-866.718688964844	-74.71298217773439	1190.234985351563	-932.9261474609377	-86.53004455566408	1189.441772460938	-793.489685058594	-139.7360229492188	1102.157470703125	-849.7495117187502	-398.4794311523439	889.3504028320315	-883.4341430664065	-62.05916595458986	958.0191650390627	-859.162048339844	-56.27964401245119	1041.066528320313	-1010.341735839844	-190.1540985107422	1018.601745605469	-1196.207153320313	-190.3356018066407	968.0692138671877	-1205.576293945313	-230.4655151367188	987.4600830078127	-1245.618530273438	-273.3003540039063	939.8887939453127	-1270.4208984375	-341.3337402343751	983.1810302734377	-1232.335205078125	-426.2996520996095	783.6472778320315	-1117.537719726563	-412.2911682128907	724.8726196289064	-1164.880615234375	-377.4454040527344	758.3152465820314	-1075.69287109375	-56.17414855957033	1022.170532226563	-696.5683593750001	-221.8864746093751	984.2341918945315	-528.1260375976564	-233.5544433593751	936.390075683594	-524.9556274414064	-278.8093261718751	961.055847167969	-492.1280517578126	-322.7076721191407	932.432800292969	-481.3186340332032	-372.8964233398438	982.097595214844	-533.2212524414064	-465.9724121093751	785.7480468750002	-669.9498901367189	-453.9234924316407	729.5003662109376	-616.1312255859376	-407.143524169922	761.5894165039064	-694.1188964843751	-350.1740417480469	665.3536376953126	-1005.553283691406	-367.5414733886719	671.3251953125001	-747.4329223632814	-467.9747924804689	825.0805664062502	-885.921813964844	-491.9394531250001	803.3900146484377	-914.072448730469	-495.6213378906251	804.1392822265627	-856.8052978515627	-401.4316711425782	594.0982055664064	-1158.005737304688	-322.3177185058594	580.4489746093751	-1186.544067382813	-293.7835998535157	614.9773559570314	-1171.609375	-296.6528625488282	528.1184082031251	-1203.580078125	-185.2976989746094	452.6412658691407	-1236.655151367188	-123.4378204345703	425.5111694335939	-1119.581665039063	-189.3426361083985	289.9397888183594	-1221.281494140625	-268.7464294433594	279.5859680175782	-1261.258056640625	-230.3841400146485	259.3389587402344	-1249.334838867188	-262.6207885742188	185.3333129882813	-1217.580444335938	-385.9285888671876	90.50351715087892	-1246.529907226563	-326.8413696289063	92.11219024658205	-1166.389282226563	-441.6767578125001	51.741512298584	-1176.655029296875	-224.9108581542969	52.93544387817384	-1231.742065429688	-235.4061126708985	57.7638511657715	-1280.167724609375	-300.2735290527344	38.39738464355469	-1316.082885742188	-387.9535522460939	556.5916137695314	-588.1879882812501	-325.3174438476563	560.4586791992189	-562.7564697265626	-303.2961120605469	584.9785766601564	-567.1044311523439	-279.6579895019532	493.5342712402345	-539.3984985351564	-236.6712341308594	446.9676818847657	-517.6344604492189	-150.1577453613282	438.384490966797	-623.8212890625001	-219.2494659423829	340.1329650878907	-502.4467773437501	-324.2247009277344	309.3772277832032	-508.9444580078126	-285.9663085937501	283.3439941406251	-501.7529296875001	-287.6581726074219	230.8744354248047	-524.8724365234376	-416.7827148437501	92.5907669067383	-539.2960815429689	-353.4421386718751	96.31974029541018	-608.9656372070314	-467.5299682617189	50.18164062500001	-614.4437255859376	-251.9365997314454	50.65485000610353	-541.9773559570314	-268.8220214843751	54.04077148437501	-497.0007934570314	-331.6242370605469	35.21504974365235	-467.7027893066407	
1575	7.87	95.04006958007814	1231.590454101563	-866.550476074219	-72.63396453857423	1184.096923828125	-932.9824218750002	-84.42372894287111	1183.195922851563	-793.4511718750002	-138.0155181884766	1096.556762695313	-849.6614990234377	-398.0223693847657	885.7449951171877	-883.5203857421877	-61.36141204833986	951.9837646484377	-859.3865356445315	-54.91629791259767	1035.076782226563	-1010.39794921875	-188.9647521972657	1014.867492675781	-1196.160400390625	-189.405258178711	964.5513916015627	-1205.948974609375	-229.7658081054688	984.3695068359377	-1245.873291015625	-272.6445312500001	937.2532958984377	-1270.818969726563	-340.3769226074219	980.961364746094	-1232.398803710938	-426.3999023437501	781.638366699219	-1117.841796875	-412.7659301757814	722.8673706054689	-1165.21142578125	-377.8853149414063	755.5670776367189	-1075.825805664063	-55.02785491943361	1015.77685546875	-696.3496704101564	-220.8045959472657	979.092956542969	-528.1959838867189	-232.6825103759766	931.555114746094	-524.8173828125001	-277.8009643554688	956.205505371094	-492.034637451172	-321.9989318847657	927.956237792969	-481.1333007812501	-372.2587585449219	977.5603637695315	-532.9689941406251	-466.3403320312501	782.4307861328127	-670.0629882812501	-454.4556274414064	725.7617187500001	-616.4234008789064	-407.3362121582032	758.1577148437501	-694.2417602539064	-350.9226379394532	662.3058471679689	-1006.113342285156	-367.7391357421876	668.3479003906251	-747.5847778320314	-467.7283935546876	822.1610107421877	-885.9333496093752	-492.2105712890626	800.8957519531252	-914.1356201171877	-496.702606201172	801.5823364257815	-856.6231079101565	-402.3176269531251	593.3206787109376	-1158.3466796875	-322.5913085937501	579.8131713867189	-1186.642456054688	-294.5461425781251	614.4304199218751	-1171.34765625	-297.4100952148438	527.8723144531251	-1204.305297851563	-185.455551147461	452.6302185058595	-1236.8837890625	-123.1325378417969	425.0941467285157	-1119.954345703125	-189.3390045166016	289.9431457519532	-1221.27587890625	-268.6254577636719	279.5236816406251	-1261.490844726563	-230.2469482421876	259.2064514160157	-1249.537841796875	-262.6103820800782	185.3266906738282	-1217.5546875	-385.7215576171876	90.4320755004883	-1246.611206054688	-326.8797302246094	92.13994598388673	-1166.44921875	-441.6482849121095	51.67442321777345	-1176.756591796875	-224.9677429199219	52.97119522094728	-1231.839233398438	-235.3721923828126	57.80715179443361	-1280.172607421875	-299.9481506347657	38.30205535888673	-1316.104370117188	-389.0748291015626	555.8744506835939	-588.2501220703126	-326.3444213867188	560.0324707031251	-563.0120239257814	-304.3764038085938	584.7565307617189	-567.6798706054689	-280.7875976562501	493.5283813476564	-539.0954589843751	-237.2786102294922	446.6609802246095	-517.0691528320314	-150.3976593017578	438.4578857421876	-623.4932861328126	-219.5663604736329	340.2615051269532	-502.2325744628907	-324.4092407226563	309.2317810058594	-508.5796813964845	-286.1163024902344	283.2524108886719	-501.5975646972657	-288.0869140625001	230.8271789550782	-524.6516723632814	-416.8529663085939	92.53565979003908	-539.2421264648439	-353.4973449707032	96.34905242919925	-608.8680419921876	-467.5963745117189	50.18386459350587	-614.3578491210939	-252.0182037353516	50.73722076416017	-541.9812011718751	-268.8145751953126	54.0412940979004	-497.0075683593751	-331.6396179199219	35.18664169311524	-467.6646423339845	
